<svg width="96" height="96" xmlns="http://www.w3.org/2000/svg" xmlns:xlink="http://www.w3.org/1999/xlink" overflow="hidden"><defs><clipPath id="clip0"><rect x="592" y="312" width="96" height="96"/></clipPath></defs><g clip-path="url(#clip0)" transform="translate(-592 -312)"><path d="M602 323 602 395 676 395 676 323ZM670 356 642 356 642 329 670 329ZM636 329 636 356 608 356 608 329ZM608 362 636 362 636 389 608 389ZM642 389 642 362 670 362 670 389Z"/><path d="M631 340 624 340 624 333 620 333 620 340 613 340 613 344 620 344 620 351 624 351 624 344 631 344 631 340Z"/><path d="M629.78 370.05 626.95 367.22 622 372.17 617.05 367.22 614.22 370.05 619.17 375 614.22 379.95 617.05 382.78 622 377.83 626.95 382.78 629.78 379.95 624.83 375 629.78 370.05Z"/><path d="M647 344 647 340 665 340 665 344Z"/><path d="M647 378 647 374 665 374 665 378Z"/><path d="M658 370C658 371.105 657.105 372 656 372 654.895 372 654 371.105 654 370 654 368.895 654.895 368 656 368 657.105 368 658 368.895 658 370Z"/><path d="M658 382C658 383.105 657.105 384 656 384 654.895 384 654 383.105 654 382 654 380.895 654.895 380 656 380 657.105 380 658 380.895 658 382Z"/></g></svg>